<?xml version="1.0" encoding="utf-8"?>
<!-- Generator: Adobe Illustrator 24.0.1, SVG Export Plug-In . SVG Version: 6.00 Build 0)  -->
<svg version="1.1" id="Layer_1" xmlns="http://www.w3.org/2000/svg" xmlns:xlink="http://www.w3.org/1999/xlink" x="0px" y="0px"
	 viewBox="0 0 500 500" style="enable-background:new 0 0 500 500;" xml:space="preserve">
<style type="text/css">
	.st0{fill:#F97615;}
</style>
<path id="XMLID_3_" class="st0" d="M31.8080196,204.1713104c-10.8816795-12.9933624-13.4055099-33.7675171-7.4954395-61.7453918
	c28.7451935-59.9000702,80.699585-106.4452972,143.0727539-128.3862762
	C132.0451965,51.3202591,74.6626358,124.3278198,58.7269096,218.4773102
	C51.7895088,217.4246674,40.1278229,214.1715698,31.8080196,204.1713104z M429.5226135,76.2289276
	c-105.3609314,22.2072906-194.5832367,85.1194916-242.5679626,118.9503937l-0.3551025,0.2473297l-2.2258148,1.5662842
	c-8.5227203,5.9988861-15.8786774,11.1797333-22.0614624,15.2191467
	c-33.8498993,22.1312103-62.4302139,26.773056-80.4522552,26.773056c-2.6696701,0-5.1744995-0.1014862-7.4636993-0.3044128
	c-2.0228806,18.9098206-2.0799713,37.9527893-0.1775818,56.6279907
	c16.0625687,2.0482178,68.9998474,8.0217285,138.7416534,8.0217285c106.4897156,0,202.9093933-13.1582336,286.6210938-39.1005249
	C499.8605042,259.5436707,500,254.7623291,500,250C500,184.7541962,474.9772034,123.0722122,429.5226135,76.2289276z
	 M212.9160004,321.6378174c-62.7600098,0-111.7466736-4.6481628-136.3065796-7.5588379
	c3.6652603,24.4140625,9.4802704,47.8642273,17.292778,69.729126c2.4033432-0.1902771,4.901825-0.2853699,7.4446945-0.2853699
	c17.9776154,0,46.5262222,4.6418457,80.4205704,26.7666626c6.1890869,4.0394592,13.557724,9.2329407,22.0931091,15.2381897
	l2.1941071,1.5473022c23.9130859,16.9059143,60.0142212,42.4234009,103.2429504,65.8418579
	c99.1401062-24.2111206,174.595459-107.9735718,188.4004517-208.9336548
	c-45.6003723,13.6084595-95.6270142,23.6784668-148.7228394,29.9309998
	C305.4548035,319.0379028,259.6768494,321.6378174,212.9160004,321.6378174z M195.4710388,442.0594177l-0.9385071-0.6595459
	c-8.9095764-6.2778625-16.601593-11.6996765-22.7970276-15.7581482
	c-29.9690704-19.5883179-54.8904266-23.7038269-70.5217819-23.7038269c-0.0887909,0-0.177536,0-0.2663269,0.0063477
	c20.1526794,47.3632813,44.5223465,72.4558716,49.6841965,77.4337769
	c31.4402466,13.690918,64.8589783,20.6283264,99.3430634,20.6283264c10.2855988,0,20.7107086-0.6468201,31.0343781-1.9277954
	c-34.9089508-20.3302307-63.9394836-40.7936401-85.3097229-55.8542786L195.4710388,442.0594177z M59.2088547,411.3293762
	c14.382103,17.0391235,30.9139099,32.0299988,49.2149353,44.6428833
	c-10.3299866-15.9103699-19.3473587-33.5011902-26.8618011-52.3919373
	C75.3665161,404.2525024,66.8501358,406.1675415,59.2088547,411.3293762z M57.6996193,311.8531799
	c-21.0531731-2.8725891-40.7809944-12.7904358-54.3831253-21.2307129
	c6.2525277,38.1556702,21.5795135,74.7958069,44.4526443,106.1979675
	c9.4548836-6.7217712,19.7278175-9.6134033,27.2296104-10.8499756
	C67.1164551,362.9324646,61.3014832,338.0111084,57.6996193,311.8531799z M56.2157364,236.6832428
	c-11.4016724-1.7882538-26.9125443-6.8803558-38.4790955-20.7614594
	c-5.1554918-6.1447449-9.0046358-13.4182434-11.4714165-21.6746521C2.1053212,212.4277039,0,231.153595,0,250
	c0,5.2505951,0.1775367,10.7738953,0.5389963,16.4176636c8.896883,6.7154541,30.8758659,21.712677,54.9792099,26.4623108
	C53.9265289,274.1984558,54.1611557,255.3076782,56.2157364,236.6832428z M81.6824799,220.5572815
	c15.6694031,0,40.6478119-4.1092072,70.6041718-23.6974945c5.7579346-3.7477417,12.7016754-8.643219,20.7488098-14.3186951
	l2.980423-2.0989838c46.7798615-33.0445862,133.5544281-94.3334045,237.4886017-119.3879471
	C368.0816345,21.6619148,310.1029968-0.0063475,249.9746552-0.0063475c-15.4791718,0-31.0344086,1.4648423-46.2409058,4.3437853
	C191.7486877,14.7879124,97.7957458,100.0405579,76.9137955,220.4177551
	C78.4610825,220.5128784,80.0527573,220.5572815,81.6824799,220.5572815z"/>
</svg>
